# Blender v2.79 (sub 0) OBJ File: ''
# www.blender.org
mtllib TestBunker.mtl
o Plane_Plane.001
v -8.000000 0.000000 8.000000
v 7.000000 0.000000 8.000000
v -8.000000 0.000000 -8.000000
v 7.000000 0.000000 -8.000000
v 8.000000 0.000000 8.000000
v 8.000000 0.000000 -8.000000
v -8.000000 0.000000 9.000000
v 7.000000 0.000000 9.000000
v -9.000000 0.000000 8.000000
v -9.000000 0.000000 -8.000000
v -8.000000 8.337180 -8.000000
v 7.000000 8.337180 -8.000000
v -0.500000 0.000000 -8.000000
v -0.500000 8.337180 -8.000000
v 7.000000 4.168590 -8.000000
v -8.000000 4.168590 -8.000000
v -0.500000 4.168590 -8.000000
v -4.250000 0.000000 -8.000000
v -4.250000 8.337180 -8.000000
v 7.000000 6.252885 -8.000000
v -8.000000 6.252885 -8.000000
v 3.250000 0.000000 -8.000000
v 3.250000 8.337180 -8.000000
v 7.000000 2.084295 -8.000000
v -8.000000 2.084295 -8.000000
v -0.500000 6.252885 -8.000000
v -0.500000 2.084295 -8.000000
v 3.250000 4.168590 -8.000000
v 3.250000 2.084295 -8.000000
v -4.250000 6.252885 -8.000000
v 3.250000 6.252885 -8.000000
v -6.125000 0.000000 -8.000000
v -6.125000 8.337180 -8.000000
v 7.000000 7.295033 -8.000000
v -8.000000 7.295033 -8.000000
v 1.375000 0.000000 -8.000000
v 1.375000 8.337180 -8.000000
v 7.000000 3.126442 -8.000000
v -8.000000 3.126442 -8.000000
v -0.500000 7.295033 -8.000000
v -0.500000 3.126442 -8.000000
v 5.125000 4.168590 -8.000000
v -2.375000 4.168590 -8.000000
v -2.375000 0.000000 -8.000000
v -2.375000 8.337180 -8.000000
v 7.000000 5.210737 -8.000000
v -8.000000 5.210737 -8.000000
v 5.125000 0.000000 -8.000000
v 5.125000 8.337180 -8.000000
v 7.000000 1.042148 -8.000000
v -8.000000 1.042148 -8.000000
v -0.500000 5.210737 -8.000000
v -0.500000 1.042148 -8.000000
v 1.375000 4.168590 -8.000000
v -6.125000 4.168590 -8.000000
v -2.375000 2.084295 -8.000000
v -6.125000 2.084295 -8.000000
v 3.250000 3.126442 -8.000000
v 3.250000 1.042148 -8.000000
v 5.125000 2.084295 -8.000000
v 1.375000 2.084295 -8.000000
v -4.250000 7.295033 -8.000000
v -2.375000 6.252885 -8.000000
v -6.125000 6.252885 -8.000000
v 3.250000 7.295033 -8.000000
v 3.250000 5.210737 -8.000000
v 5.125000 6.252885 -8.000000
v 1.375000 6.252885 -8.000000
v 1.375000 5.210737 -8.000000
v 5.125000 5.210737 -8.000000
v 5.125000 7.295033 -8.000000
v -6.125000 5.210737 -8.000000
v -2.375000 5.210737 -8.000000
v -2.375000 7.295033 -8.000000
v 1.375000 1.042148 -8.000000
v 5.125000 1.042148 -8.000000
v 5.125000 3.126442 -8.000000
v -6.125000 1.042148 -8.000000
v -2.375000 1.042148 -8.000000
v -2.375000 3.126442 -8.000000
v -6.125000 3.126442 -8.000000
v 1.375000 3.126442 -8.000000
v -6.125000 7.295033 -8.000000
v 1.375000 7.295033 -8.000000
v 1.375000 7.295033 -6.895230
v -0.500000 7.295033 -6.895230
v -0.500000 8.337180 -6.895230
v 1.375000 8.337180 -6.895230
v -6.125000 7.295033 -6.895230
v -8.000000 7.295033 -6.895230
v -8.000000 8.337180 -6.895230
v -6.125000 8.337180 -6.895230
v 1.375000 3.126442 -6.895230
v -0.500000 3.126442 -6.895230
v -0.500000 4.168590 -6.895230
v 1.375000 4.168590 -6.895230
v -6.125000 3.126442 -6.895230
v -8.000000 3.126442 -6.895230
v -8.000000 4.168590 -6.895230
v -6.125000 4.168590 -6.895230
v -6.125000 1.042148 -6.895230
v -8.000000 1.042148 -6.895230
v -8.000000 2.084295 -6.895230
v -6.125000 2.084295 -6.895230
v 5.125000 3.126442 -6.895230
v 3.250000 3.126442 -6.895230
v 3.250000 4.168590 -6.895230
v 5.125000 4.168590 -6.895230
v 5.125000 1.042148 -6.895230
v 3.250000 1.042148 -6.895230
v 3.250000 2.084295 -6.895230
v 5.125000 2.084295 -6.895230
v 1.375000 1.042148 -6.895230
v -0.500000 1.042148 -6.895230
v -0.500000 2.084295 -6.895230
v 1.375000 2.084295 -6.895230
v -2.375000 7.295033 -6.895230
v -4.250000 7.295033 -6.895230
v -4.250000 8.337180 -6.895230
v -2.375000 8.337180 -6.895230
v -6.125000 5.210737 -6.895230
v -8.000000 5.210737 -6.895230
v -8.000000 6.252885 -6.895230
v -6.125000 6.252885 -6.895230
v 5.125000 7.295033 -6.895230
v 3.250000 7.295033 -6.895230
v 3.250000 8.337180 -6.895230
v 5.125000 8.337180 -6.895230
v 5.125000 5.210737 -6.895230
v 3.250000 5.210737 -6.895230
v 3.250000 6.252885 -6.895230
v 5.125000 6.252885 -6.895230
v 1.375000 5.210737 -6.895230
v -0.500000 5.210737 -6.895230
v -0.500000 6.252885 -6.895230
v 1.375000 6.252885 -6.895230
v 3.250000 5.210737 -6.895230
v 1.375000 5.210737 -6.895230
v 1.375000 6.252885 -6.895230
v 3.250000 6.252885 -6.895230
v 3.250000 4.168590 -6.895230
v 1.375000 4.168590 -6.895230
v 1.375000 5.210737 -6.895230
v 3.250000 5.210737 -6.895230
v 1.375000 4.168590 -6.895230
v -0.500000 4.168590 -6.895230
v -0.500000 5.210737 -6.895230
v 1.375000 5.210737 -6.895230
v 7.000000 5.210737 -6.895230
v 5.125000 5.210737 -6.895230
v 5.125000 6.252885 -6.895230
v 7.000000 6.252885 -6.895230
v 7.000000 4.168590 -6.895230
v 5.125000 4.168590 -6.895230
v 5.125000 5.210737 -6.895230
v 7.000000 5.210737 -6.895230
v 5.125000 4.168590 -6.895230
v 3.250000 4.168590 -6.895230
v 3.250000 5.210737 -6.895230
v 5.125000 5.210737 -6.895230
v 7.000000 7.295033 -6.895230
v 5.125000 7.295033 -6.895230
v 5.125000 8.337180 -6.895230
v 7.000000 8.337180 -6.895230
v 7.000000 6.252885 -6.895230
v 5.125000 6.252885 -6.895230
v 5.125000 7.295033 -6.895230
v 7.000000 7.295033 -6.895230
v 5.125000 6.252885 -6.895230
v 3.250000 6.252885 -6.895230
v 3.250000 7.295033 -6.895230
v 5.125000 7.295033 -6.895230
v -6.125000 4.168590 -6.895230
v -8.000000 4.168590 -6.895230
v -8.000000 5.210737 -6.895230
v -6.125000 5.210737 -6.895230
v -0.500000 5.210737 -6.895230
v -2.375000 5.210737 -6.895230
v -2.375000 6.252885 -6.895230
v -0.500000 6.252885 -6.895230
v -0.500000 4.168590 -6.895230
v -2.375000 4.168590 -6.895230
v -2.375000 5.210737 -6.895230
v -0.500000 5.210737 -6.895230
v -0.500000 7.295033 -6.895230
v -2.375000 7.295033 -6.895230
v -2.375000 8.337180 -6.895230
v -0.500000 8.337180 -6.895230
v -0.500000 6.252885 -6.895230
v -2.375000 6.252885 -6.895230
v -2.375000 7.295033 -6.895230
v -0.500000 7.295033 -6.895230
v -2.375000 6.252885 -6.895230
v -4.250000 6.252885 -6.895230
v -4.250000 7.295033 -6.895230
v -2.375000 7.295033 -6.895230
v 3.250000 1.042148 -6.895230
v 1.375000 1.042148 -6.895230
v 1.375000 2.084295 -6.895230
v 3.250000 2.084295 -6.895230
v 3.250000 0.000000 -6.895230
v 1.375000 0.000000 -6.895230
v 1.375000 1.042148 -6.895230
v 3.250000 1.042148 -6.895230
v 1.375000 0.000000 -6.895230
v -0.500000 0.000000 -6.895230
v -0.500000 1.042148 -6.895230
v 1.375000 1.042148 -6.895230
v 7.000000 1.042148 -6.895230
v 5.125000 1.042148 -6.895230
v 5.125000 2.084295 -6.895230
v 7.000000 2.084295 -6.895230
v 7.000000 0.000000 -6.895230
v 5.125000 0.000000 -6.895230
v 5.125000 1.042148 -6.895230
v 7.000000 1.042148 -6.895230
v 5.125000 0.000000 -6.895230
v 3.250000 0.000000 -6.895230
v 3.250000 1.042148 -6.895230
v 5.125000 1.042148 -6.895230
v 7.000000 3.126442 -6.895230
v 5.125000 3.126442 -6.895230
v 5.125000 4.168590 -6.895230
v 7.000000 4.168590 -6.895230
v 7.000000 2.084295 -6.895230
v 5.125000 2.084295 -6.895230
v 5.125000 3.126442 -6.895230
v 7.000000 3.126442 -6.895230
v 5.125000 2.084295 -6.895230
v 3.250000 2.084295 -6.895230
v 3.250000 3.126442 -6.895230
v 5.125000 3.126442 -6.895230
v -6.125000 0.000000 -6.895230
v -8.000000 0.000000 -6.895230
v -8.000000 1.042148 -6.895230
v -6.125000 1.042148 -6.895230
v -0.500000 1.042148 -6.895230
v -2.375000 1.042148 -6.895230
v -2.375000 2.084295 -6.895230
v -0.500000 2.084295 -6.895230
v -0.500000 0.000000 -6.895230
v -2.375000 0.000000 -6.895230
v -2.375000 1.042148 -6.895230
v -0.500000 1.042148 -6.895230
v -0.500000 3.126442 -6.895230
v -2.375000 3.126442 -6.895230
v -2.375000 4.168590 -6.895230
v -0.500000 4.168590 -6.895230
v -0.500000 2.084295 -6.895230
v -2.375000 2.084295 -6.895230
v -2.375000 3.126442 -6.895230
v -0.500000 3.126442 -6.895230
v -6.125000 2.084295 -6.895230
v -8.000000 2.084295 -6.895230
v -8.000000 3.126442 -6.895230
v -6.125000 3.126442 -6.895230
v 3.250000 3.126442 -6.895230
v 1.375000 3.126442 -6.895230
v 1.375000 4.168590 -6.895230
v 3.250000 4.168590 -6.895230
v 3.250000 2.084295 -6.895230
v 1.375000 2.084295 -6.895230
v 1.375000 3.126442 -6.895230
v 3.250000 3.126442 -6.895230
v 1.375000 2.084295 -6.895230
v -0.500000 2.084295 -6.895230
v -0.500000 3.126442 -6.895230
v 1.375000 3.126442 -6.895230
v -4.250000 7.295033 -6.895230
v -6.125000 7.295033 -6.895230
v -6.125000 8.337180 -6.895230
v -4.250000 8.337180 -6.895230
v -4.250000 6.252885 -6.895230
v -6.125000 6.252885 -6.895230
v -6.125000 7.295033 -6.895230
v -4.250000 7.295033 -6.895230
v -6.125000 6.252885 -6.895230
v -8.000000 6.252885 -6.895230
v -8.000000 7.295033 -6.895230
v -6.125000 7.295033 -6.895230
v 3.250000 7.295033 -6.895230
v 1.375000 7.295033 -6.895230
v 1.375000 8.337180 -6.895230
v 3.250000 8.337180 -6.895230
v 3.250000 6.252885 -6.895230
v 1.375000 6.252885 -6.895230
v 1.375000 7.295033 -6.895230
v 3.250000 7.295033 -6.895230
v 1.375000 6.252885 -6.895230
v -0.500000 6.252885 -6.895230
v -0.500000 7.295033 -6.895230
v 1.375000 7.295033 -6.895230
v 7.000000 8.358522 -8.000000
v 7.000000 8.358522 8.000000
v 8.000000 8.358522 8.000000
v 8.000000 8.358522 -8.000000
v 7.000000 8.358522 8.000000
v -8.000000 8.358522 8.000000
v -8.000000 8.358522 9.000000
v 7.000000 8.358522 9.000000
v -8.000000 8.358522 8.000000
v -8.000000 8.358522 -8.000000
v -9.000000 8.358522 -8.000000
v -9.000000 8.358522 8.000000
vn 0.0000 1.0000 0.0000
vn 0.0000 0.0000 -1.0000
vn 1.0000 0.0000 0.0000
vn 0.0000 -1.0000 0.0000
vn -1.0000 0.0000 0.0000
vn 0.0000 0.0000 1.0000
usemtl None
s off
f 1//1 2//1 4//1 48//1 22//1 36//1 13//1 44//1 18//1 32//1 3//1
f 85//2 86//2 87//2 88//2
f 40//1 86//1 85//1 84//1
f 14//3 87//3 86//3 40//3
f 37//4 88//4 87//4 14//4
f 84//5 85//5 88//5 37//5
f 89//2 90//2 91//2 92//2
f 35//1 90//1 89//1 83//1
f 11//3 91//3 90//3 35//3
f 33//4 92//4 91//4 11//4
f 83//5 89//5 92//5 33//5
f 93//2 94//2 95//2 96//2
f 41//1 94//1 93//1 82//1
f 17//3 95//3 94//3 41//3
f 54//4 96//4 95//4 17//4
f 82//5 93//5 96//5 54//5
f 97//2 98//2 99//2 100//2
f 39//1 98//1 97//1 81//1
f 16//3 99//3 98//3 39//3
f 55//4 100//4 99//4 16//4
f 81//5 97//5 100//5 55//5
f 101//2 102//2 103//2 104//2
f 51//1 102//1 101//1 78//1
f 25//3 103//3 102//3 51//3
f 57//4 104//4 103//4 25//4
f 78//5 101//5 104//5 57//5
f 105//2 106//2 107//2 108//2
f 58//1 106//1 105//1 77//1
f 28//3 107//3 106//3 58//3
f 42//4 108//4 107//4 28//4
f 77//5 105//5 108//5 42//5
f 109//2 110//2 111//2 112//2
f 59//1 110//1 109//1 76//1
f 29//3 111//3 110//3 59//3
f 60//4 112//4 111//4 29//4
f 76//5 109//5 112//5 60//5
f 113//2 114//2 115//2 116//2
f 53//1 114//1 113//1 75//1
f 27//3 115//3 114//3 53//3
f 61//4 116//4 115//4 27//4
f 75//5 113//5 116//5 61//5
f 117//2 118//2 119//2 120//2
f 62//1 118//1 117//1 74//1
f 19//3 119//3 118//3 62//3
f 45//4 120//4 119//4 19//4
f 74//5 117//5 120//5 45//5
f 121//2 122//2 123//2 124//2
f 47//1 122//1 121//1 72//1
f 21//3 123//3 122//3 47//3
f 64//4 124//4 123//4 21//4
f 72//5 121//5 124//5 64//5
f 125//2 126//2 127//2 128//2
f 65//1 126//1 125//1 71//1
f 23//3 127//3 126//3 65//3
f 49//4 128//4 127//4 23//4
f 71//5 125//5 128//5 49//5
f 129//2 130//2 131//2 132//2
f 66//1 130//1 129//1 70//1
f 31//3 131//3 130//3 66//3
f 67//4 132//4 131//4 31//4
f 70//5 129//5 132//5 67//5
f 133//2 134//2 135//2 136//2
f 52//1 134//1 133//1 69//1
f 26//3 135//3 134//3 52//3
f 68//4 136//4 135//4 26//4
f 69//5 133//5 136//5 68//5
f 137//2 138//2 139//2 140//2
f 69//1 138//1 137//1 66//1
f 68//3 139//3 138//3 69//3
f 31//4 140//4 139//4 68//4
f 66//5 137//5 140//5 31//5
f 141//2 142//2 143//2 144//2
f 54//1 142//1 141//1 28//1
f 69//3 143//3 142//3 54//3
f 66//4 144//4 143//4 69//4
f 28//5 141//5 144//5 66//5
f 145//2 146//2 147//2 148//2
f 17//1 146//1 145//1 54//1
f 52//3 147//3 146//3 17//3
f 69//4 148//4 147//4 52//4
f 54//5 145//5 148//5 69//5
f 149//2 150//2 151//2 152//2
f 70//1 150//1 149//1 46//1
f 67//3 151//3 150//3 70//3
f 20//4 152//4 151//4 67//4
f 46//5 149//5 152//5 20//5
f 153//2 154//2 155//2 156//2
f 42//1 154//1 153//1 15//1
f 70//3 155//3 154//3 42//3
f 46//4 156//4 155//4 70//4
f 15//5 153//5 156//5 46//5
f 157//2 158//2 159//2 160//2
f 28//1 158//1 157//1 42//1
f 66//3 159//3 158//3 28//3
f 70//4 160//4 159//4 66//4
f 42//5 157//5 160//5 70//5
f 161//2 162//2 163//2 164//2
f 71//1 162//1 161//1 34//1
f 49//3 163//3 162//3 71//3
f 12//4 164//4 163//4 49//4
f 34//5 161//5 164//5 12//5
f 165//2 166//2 167//2 168//2
f 67//1 166//1 165//1 20//1
f 71//3 167//3 166//3 67//3
f 34//4 168//4 167//4 71//4
f 20//5 165//5 168//5 34//5
f 169//2 170//2 171//2 172//2
f 31//1 170//1 169//1 67//1
f 65//3 171//3 170//3 31//3
f 71//4 172//4 171//4 65//4
f 67//5 169//5 172//5 71//5
f 173//2 174//2 175//2 176//2
f 16//1 174//1 173//1 55//1
f 47//3 175//3 174//3 16//3
f 72//4 176//4 175//4 47//4
f 55//5 173//5 176//5 72//5
f 177//2 178//2 179//2 180//2
f 73//1 178//1 177//1 52//1
f 63//3 179//3 178//3 73//3
f 26//4 180//4 179//4 63//4
f 52//5 177//5 180//5 26//5
f 181//2 182//2 183//2 184//2
f 43//1 182//1 181//1 17//1
f 73//3 183//3 182//3 43//3
f 52//4 184//4 183//4 73//4
f 17//5 181//5 184//5 52//5
f 185//2 186//2 187//2 188//2
f 74//1 186//1 185//1 40//1
f 45//3 187//3 186//3 74//3
f 14//4 188//4 187//4 45//4
f 40//5 185//5 188//5 14//5
f 189//2 190//2 191//2 192//2
f 63//1 190//1 189//1 26//1
f 74//3 191//3 190//3 63//3
f 40//4 192//4 191//4 74//4
f 26//5 189//5 192//5 40//5
f 193//2 194//2 195//2 196//2
f 30//1 194//1 193//1 63//1
f 62//3 195//3 194//3 30//3
f 74//4 196//4 195//4 62//4
f 63//5 193//5 196//5 74//5
f 197//2 198//2 199//2 200//2
f 75//1 198//1 197//1 59//1
f 61//3 199//3 198//3 75//3
f 29//4 200//4 199//4 61//4
f 59//5 197//5 200//5 29//5
f 201//2 202//2 203//2 204//2
f 36//1 202//1 201//1 22//1
f 75//3 203//3 202//3 36//3
f 59//4 204//4 203//4 75//4
f 22//5 201//5 204//5 59//5
f 205//2 206//2 207//2 208//2
f 13//1 206//1 205//1 36//1
f 53//3 207//3 206//3 13//3
f 75//4 208//4 207//4 53//4
f 36//5 205//5 208//5 75//5
f 209//2 210//2 211//2 212//2
f 76//1 210//1 209//1 50//1
f 60//3 211//3 210//3 76//3
f 24//4 212//4 211//4 60//4
f 50//5 209//5 212//5 24//5
f 213//2 214//2 215//2 216//2
f 48//1 214//1 213//1 4//1
f 76//3 215//3 214//3 48//3
f 50//4 216//4 215//4 76//4
f 4//5 213//5 216//5 50//5
f 217//2 218//2 219//2 220//2
f 22//1 218//1 217//1 48//1
f 59//3 219//3 218//3 22//3
f 76//4 220//4 219//4 59//4
f 48//5 217//5 220//5 76//5
f 221//2 222//2 223//2 224//2
f 77//1 222//1 221//1 38//1
f 42//3 223//3 222//3 77//3
f 15//4 224//4 223//4 42//4
f 38//5 221//5 224//5 15//5
f 225//2 226//2 227//2 228//2
f 60//1 226//1 225//1 24//1
f 77//3 227//3 226//3 60//3
f 38//4 228//4 227//4 77//4
f 24//5 225//5 228//5 38//5
f 229//2 230//2 231//2 232//2
f 29//1 230//1 229//1 60//1
f 58//3 231//3 230//3 29//3
f 77//4 232//4 231//4 58//4
f 60//5 229//5 232//5 77//5
f 233//2 234//2 235//2 236//2
f 3//1 234//1 233//1 32//1
f 51//3 235//3 234//3 3//3
f 78//4 236//4 235//4 51//4
f 32//5 233//5 236//5 78//5
f 237//2 238//2 239//2 240//2
f 79//1 238//1 237//1 53//1
f 56//3 239//3 238//3 79//3
f 27//4 240//4 239//4 56//4
f 53//5 237//5 240//5 27//5
f 241//2 242//2 243//2 244//2
f 44//1 242//1 241//1 13//1
f 79//3 243//3 242//3 44//3
f 53//4 244//4 243//4 79//4
f 13//5 241//5 244//5 53//5
f 245//2 246//2 247//2 248//2
f 80//1 246//1 245//1 41//1
f 43//3 247//3 246//3 80//3
f 17//4 248//4 247//4 43//4
f 41//5 245//5 248//5 17//5
f 249//2 250//2 251//2 252//2
f 56//1 250//1 249//1 27//1
f 80//3 251//3 250//3 56//3
f 41//4 252//4 251//4 80//4
f 27//5 249//5 252//5 41//5
f 253//2 254//2 255//2 256//2
f 25//1 254//1 253//1 57//1
f 39//3 255//3 254//3 25//3
f 81//4 256//4 255//4 39//4
f 57//5 253//5 256//5 81//5
f 257//2 258//2 259//2 260//2
f 82//1 258//1 257//1 58//1
f 54//3 259//3 258//3 82//3
f 28//4 260//4 259//4 54//4
f 58//5 257//5 260//5 28//5
f 261//2 262//2 263//2 264//2
f 61//1 262//1 261//1 29//1
f 82//3 263//3 262//3 61//3
f 58//4 264//4 263//4 82//4
f 29//5 261//5 264//5 58//5
f 265//2 266//2 267//2 268//2
f 27//1 266//1 265//1 61//1
f 41//3 267//3 266//3 27//3
f 82//4 268//4 267//4 41//4
f 61//5 265//5 268//5 82//5
f 269//2 270//2 271//2 272//2
f 83//1 270//1 269//1 62//1
f 33//3 271//3 270//3 83//3
f 19//4 272//4 271//4 33//4
f 62//5 269//5 272//5 19//5
f 273//2 274//2 275//2 276//2
f 64//1 274//1 273//1 30//1
f 83//3 275//3 274//3 64//3
f 62//4 276//4 275//4 83//4
f 30//5 273//5 276//5 62//5
f 277//2 278//2 279//2 280//2
f 21//1 278//1 277//1 64//1
f 35//3 279//3 278//3 21//3
f 83//4 280//4 279//4 35//4
f 64//5 277//5 280//5 83//5
f 281//2 282//2 283//2 284//2
f 84//1 282//1 281//1 65//1
f 37//3 283//3 282//3 84//3
f 23//4 284//4 283//4 37//4
f 65//5 281//5 284//5 23//5
f 285//2 286//2 287//2 288//2
f 68//1 286//1 285//1 31//1
f 84//3 287//3 286//3 68//3
f 65//4 288//4 287//4 84//4
f 31//5 285//5 288//5 65//5
f 289//2 290//2 291//2 292//2
f 26//1 290//1 289//1 68//1
f 40//3 291//3 290//3 26//3
f 84//4 292//4 291//4 40//4
f 68//5 289//5 292//5 84//5
f 293//1 294//1 295//1 296//1
f 2//5 294//5 293//5 4//5
f 5//6 295//6 294//6 2//6
f 6//3 296//3 295//3 5//3
f 4//2 293//2 296//2 6//2
f 297//1 298//1 299//1 300//1
f 1//2 298//2 297//2 2//2
f 7//5 299//5 298//5 1//5
f 8//6 300//6 299//6 7//6
f 2//3 297//3 300//3 8//3
f 301//1 302//1 303//1 304//1
f 3//3 302//3 301//3 1//3
f 10//2 303//2 302//2 3//2
f 9//5 304//5 303//5 10//5
f 1//6 301//6 304//6 9//6
